<?xml version="1.0" encoding="UTF-8"?><svg id="Layer_1" xmlns="http://www.w3.org/2000/svg" width="600" height="205" viewBox="0 0 600 205"><defs><style>.cls-1{fill:#ed0c32;}.cls-2{fill:#fff;}.cls-3{fill:#c4c4c4;}.cls-4{fill:none;opacity:0;stroke:#fff;stroke-miterlimit:10;}</style></defs><rect class="cls-4" width="600" height="205"/><path class="cls-2" d="M109.26,110.71h.02v-12.91c0-7.32-4.8-10.99-12.77-10.99-7.52.02-12.32,4.32-13.76,9.74l7.97,1.45c.71-2.82,2.34-4.2,5.45-4.2,3.47,0,4.86,1.69,4.86,4.38v.48l-7.85,1.51c-6.37,1.13-11.4,3.79-11.4,10.07,0,5.57,4.56,9.3,10.75,9.3,4.14,0,7.32-1.27,9.36-3.47,1.39,2.64,4.62,3.73,10.01,2.93v-6.31c-1.92.24-2.64-.3-2.64-1.98ZM101.05,107.76v.02c0,3.55-3.29,5.39-6.84,5.39-2.52,0-4.14-1.27-4.14-3.41,0-2.52,2.04-3.41,4.8-3.97l6.19-1.27v3.23Z"/><path class="cls-2" d="M141.14,109.07l.04-.04v-14.58h6.43v-7.02h-6.43v-9h-8.29v9h-10.01v-9h-8.29v9h-4.2v7.02h4.2v16.32c0,6.48,3.35,8.59,9.72,8.59,2.1,0,3.91-.18,5.39-.48v-6.96c-1.07.12-1.69.18-2.82.18-2.52,0-4.03-.36-4.03-3.05v-14.58h10.01v16.32c0,6.48,3.35,8.59,9.72,8.59,2.1,0,3.91-.18,5.39-.48v-6.96c-1.07.12-1.69.18-2.82.18-2.52,0-4.03-.36-4.03-3.05Z"/><path class="cls-2" d="M163.63,86.84c-8.94,0-15.37,7.08-15.37,16.38,0,9.78,6.37,16.44,15.67,16.44,6.31,0,11.64-3.23,13.92-9l-7.08-2.52c-.95,3.05-3.55,4.62-6.78,4.62-4.14,0-7.02-2.88-7.61-7.67h21.66v-2.46c0-8.82-5.04-15.79-14.4-15.79ZM156.67,99.37c1.01-3.85,3.55-5.83,6.9-5.83,4.09,0,6.07,2.7,6.13,5.83h-13.03Z"/><path class="cls-2" d="M197.33,86.86l.02-.02c-4.03,0-6.9,1.8-8.65,3.85v-3.23h-8.41v31.57h8.41v-18.24c0-4.14,2.88-6.25,5.81-6.25,3.61,0,5.04,2.52,5.04,6.07v18.42h8.41v-20.82c0-6.84-4.03-11.34-10.63-11.34Z"/><path class="cls-2" d="M221.08,109.05l.02-.02v-14.58h6.43v-7.02h-6.43v-9h-8.29v9h-4.2v7.02h4.2v16.32c0,6.48,3.35,8.59,9.72,8.59,2.1,0,3.91-.18,5.39-.48v-6.96c-1.07.12-1.69.18-2.82.18-2.52,0-4.03-.36-4.03-3.05Z"/><rect class="cls-2" x="230.29" y="87.43" width="8.41" height="31.57"/><rect class="cls-2" x="238.69" y="78.43" width="8.41" height="9"/><path class="cls-2" d="M256.5,86.84c-9.12,0-15.49,6.6-15.49,16.38s6.37,16.44,15.49,16.44,15.49-6.6,15.49-16.44-6.37-16.38-15.49-16.38ZM256.5,112.7c-4.38,0-7.08-3.47-7.08-9.48s2.7-9.42,7.08-9.42,7.08,3.47,7.08,9.42-2.7,9.48-7.08,9.48Z"/><path class="cls-2" d="M291.58,86.86l.02-.02c-4.03,0-6.9,1.8-8.65,3.85v-3.23h-8.41v31.57h8.41v-18.24c0-4.14,2.88-6.25,5.81-6.25,3.61,0,5.04,2.52,5.04,6.07v18.42h8.41v-20.82c0-6.84-4.03-11.34-10.63-11.34Z"/><polygon class="cls-1" points="326.64 86.84 308.16 111.67 308.16 118.98 322.42 118.98 340.88 93.86 340.88 86.84 326.64 86.84"/><path class="cls-3" d="M360.89,114.27c3.61,0,6.24-2.19,7.18-5.81l5.16,1.76c-1.81,5.46-6.11,8.9-12.34,8.9-8.21,0-14.19-6.54-14.19-15.91s5.98-15.91,14.19-15.91c6.24,0,10.54,3.44,12.34,8.9l-5.16,1.76c-.95-3.61-3.57-5.8-7.18-5.8-5.07,0-8.69,4.39-8.69,11.05s3.61,11.05,8.69,11.05Z"/><path class="cls-3" d="M385.24,119.13c-6.36,0-10.88-4.73-10.88-11.74s4.51-11.74,10.88-11.74,10.88,4.73,10.88,11.74-4.52,11.74-10.88,11.74ZM385.24,114.79c3.48,0,5.68-2.79,5.68-7.4s-2.19-7.4-5.68-7.4-5.68,2.79-5.68,7.4,2.19,7.4,5.68,7.4Z"/><path class="cls-3" d="M403.06,118.66h-5.16v-22.57h5.16v2.41c1.25-1.51,3.18-2.84,6.19-2.84,2.71,0,4.73,1.2,5.98,3.14,1.38-1.46,3.53-3.14,7.01-3.14,4.64,0,7.65,3.27,7.65,8.13v14.88h-5.16v-13.37c0-2.8-1.03-4.82-3.78-4.82-2.19,0-4.47,1.72-4.47,4.94v13.24h-5.16v-13.37c0-2.8-1.03-4.82-3.78-4.82-2.19,0-4.47,1.72-4.47,4.94v13.24Z"/><path class="cls-3" d="M437.69,116.29v10.1h-5.16v-30.31h5.16v2.41c1.42-1.68,3.57-2.84,6.49-2.84,6.32,0,9.93,5.33,9.93,11.74s-3.61,11.74-9.93,11.74c-2.92,0-5.07-1.16-6.49-2.84ZM437.56,108.08c0,4.17,2.41,6.54,5.59,6.54,3.74,0,5.76-2.92,5.76-7.22s-2.02-7.22-5.76-7.22c-3.18,0-5.59,2.32-5.59,6.58v1.33Z"/><path class="cls-3" d="M454.55,112.38c0-4.3,3.22-6.19,7.57-7.09l6.24-1.29v-.39c0-2.15-1.12-3.48-3.87-3.48-2.45,0-3.74,1.12-4.34,3.31l-4.86-1.12c1.12-3.74,4.43-6.66,9.42-6.66,5.42,0,8.69,2.58,8.69,7.78v9.72c0,1.29.56,1.68,1.98,1.5v4c-3.74.43-5.72-.3-6.49-2.15-1.42,1.59-3.78,2.54-6.71,2.54-4.3,0-7.61-2.62-7.61-6.67ZM468.35,107.95l-4.86,1.03c-2.19.47-3.83,1.16-3.83,3.18,0,1.76,1.29,2.75,3.27,2.75,2.75,0,5.42-1.46,5.42-4.21v-2.75Z"/><path class="cls-3" d="M477.08,96.08h5.16v2.41c1.29-1.51,3.31-2.84,6.23-2.84,4.73,0,7.57,3.27,7.57,8.13v14.88h-5.16v-13.37c0-2.8-1.12-4.82-3.96-4.82-2.32,0-4.69,1.72-4.69,4.94v13.24h-5.16v-22.57Z"/><path class="cls-3" d="M500.99,126.57c-1.07,0-1.38-.04-2.11-.13v-4.34c.69.09,1.08.13,1.72.13,1.72,0,2.54-.47,3.27-2.28l.86-2.11-8.21-21.76h5.42l5.55,15.82,5.42-15.82h5.33l-9.29,24.68c-1.29,3.44-3.27,5.81-7.96,5.81Z"/></svg>