<?xml version="1.0" encoding="UTF-8"?><svg id="Layer_1" xmlns="http://www.w3.org/2000/svg" width="600" height="250" viewBox="0 0 600 250"><defs><style>.cls-1{fill:#ed0c32;}.cls-2{fill:#fff;}.cls-3{fill:#c4c4c4;}.cls-4{fill:none;opacity:0;stroke:#fff;stroke-miterlimit:10;}.cls-5{fill:#9c0823;}</style></defs><path class="cls-3" d="M307.1,175.5h-7.7v-43.2h17.3c9.6,0,15.6,4.5,15.6,13.2s-6,13.2-15.6,13.2h-9.6v16.7ZM316.3,152.2c5.5,0,8.5-2.4,8.5-6.6s-2.9-6.6-8.5-6.6h-9.1v13.2h9.1Z"/><path class="cls-3" d="M332.1,166.7c0-6,4.5-8.7,10.6-9.9l8.7-1.8v-.5c0-3-1.6-4.9-5.4-4.9s-5.2,1.6-6.1,4.6l-6.8-1.6c1.6-5.2,6.2-9.3,13.2-9.3s12.1,3.6,12.1,10.9v13.6c0,1.8.8,2.3,2.8,2.1v5.6c-5.2.6-8-.4-9.1-3-2,2.2-5.3,3.5-9.4,3.5-6,0-10.6-3.7-10.6-9.3ZM351.4,160.5l-6.8,1.4c-3.1.7-5.3,1.6-5.3,4.4s1.8,3.8,4.6,3.8,7.6-2,7.6-5.9v-3.8Z"/><path class="cls-3" d="M362.9,159.7c0-9,5-16.4,13.9-16.4s7.1,1.6,9.1,4v-15h7.2v43.2h-7.2v-3.3c-2,2.3-5,4-9.1,4-8.8,0-13.9-7.5-13.9-16.4ZM378.2,149.6c-5.2,0-8.1,4.1-8.1,10.1s2.8,10.1,8.1,10.1,7.8-3.3,7.8-9.1v-1.9c0-6-3.4-9.2-7.8-9.2Z"/><polygon class="cls-1" points="460.9 110.2 425.9 84.2 408.5 84.2 408.5 109.8 435.1 129.6 460.9 110.2"/><polygon class="cls-5" points="430.3 126 435.1 129.6 460.9 110.2 430.3 126"/><polygon class="cls-1" points="408.5 149.4 460.9 110.2 460.9 123.4 460.9 149.3 425.8 175.5 408.5 175.5 408.5 149.4"/><path class="cls-2" d="M171.7,110.9v-14.8c0-8.4-5.5-12.6-14.7-12.6s-14.1,5-15.8,11.2l9.2,1.7c.8-3.2,2.7-4.8,6.3-4.8s5.6,1.9,5.6,5v.6l-9,1.7c-7.3,1.3-13.1,4.3-13.1,11.6s5.2,10.7,12.3,10.7,8.4-1.4,10.7-4c1.6,3,5.3,4.3,11.5,3.4v-7.2c-2.2.3-3-.3-3-2.3ZM162.2,107.5c0,4.1-3.8,6.2-7.8,6.2s-4.8-1.4-4.8-3.9,2.3-3.9,5.5-4.5l7.1-1.4v3.7Z"/><path class="cls-2" d="M208.3,109v-16.7h7.4v-8.1h-7.4v-10.3h-9.5v10.3h-11.5v-10.3h-9.5v10.3h-4.8v8.1h4.8v18.7c0,7.4,3.9,9.8,11.2,9.8s4.5-.2,6.2-.6v-8c-1.2.1-1.9.2-3.2.2-2.9,0-4.6-.4-4.6-3.5v-16.7h11.5v18.7c0,7.4,3.9,9.8,11.2,9.8s4.5-.2,6.2-.6v-8c-1.2.1-1.9.2-3.2.2-2.9,0-4.6-.4-4.6-3.5Z"/><path class="cls-2" d="M234,83.5c-10.3,0-17.6,8.1-17.6,18.8s7.3,18.9,18,18.9,13.4-3.7,16-10.3l-8.1-2.9c-1.1,3.5-4.1,5.3-7.8,5.3s-8.1-3.3-8.7-8.8h24.9v-2.8c0-10.1-5.8-18.1-16.5-18.1ZM226,97.9c1.2-4.4,4.1-6.7,7.9-6.7s7,3.1,7,6.7h-14.9Z"/><path class="cls-2" d="M272.7,83.5c-4.6,0-7.9,2.1-9.9,4.4v-3.7h-9.6v36.2h9.6v-20.9c0-4.8,3.3-7.2,6.7-7.2s5.8,2.9,5.8,7v21.1h9.6v-23.9c0-7.8-4.6-13-12.2-13Z"/><path class="cls-2" d="M300,109v-16.7h7.4v-8.1h-7.4v-10.3h-9.5v10.3h-4.8v8.1h4.8v18.7c0,7.4,3.9,9.8,11.2,9.8s4.5-.2,6.2-.6v-8c-1.2.1-1.9.2-3.2.2-2.9,0-4.6-.4-4.6-3.5Z"/><rect class="cls-2" x="310.5" y="84.2" width="9.6" height="36.2"/><rect class="cls-2" x="320.1" y="73.9" width="9.6" height="10.3"/><path class="cls-2" d="M340.6,83.5c-10.5,0-17.8,7.6-17.8,18.8s7.3,18.9,17.8,18.9,17.8-7.6,17.8-18.9-7.3-18.8-17.8-18.8ZM340.6,113.2c-5,0-8.1-4-8.1-10.9s3.1-10.8,8.1-10.8,8.1,4,8.1,10.8-3.1,10.9-8.1,10.9Z"/><path class="cls-2" d="M380.9,83.5c-4.6,0-7.9,2.1-9.9,4.4v-3.7h-9.6v36.2h9.6v-20.9c0-4.8,3.3-7.2,6.7-7.2s5.8,2.9,5.8,7v21.1h9.6v-23.9c0-7.8-4.6-13-12.2-13Z"/><rect class="cls-4" x="0" width="600" height="250"/></svg>